<svg id="Layer_1" data-name="Layer 1" xmlns="http://www.w3.org/2000/svg" width="29.67" height="42.18" viewBox="0 0 29.67 42.18"><defs><style>.cls-1{fill:#012958;}.cls-2,.cls-3{fill:none;stroke:#ffd25b;stroke-miterlimit:10;}.cls-2{stroke-width:0.73px;}.cls-3{stroke-width:0.93px;}.cls-4{fill:#ffd25b;}</style></defs><title>where-to-stay</title><path class="cls-1" d="M39.33,18.24c0,13.9-14.83,27.34-14.83,27.34S9.66,31,9.66,18.24a14.83,14.83,0,0,1,29.67,0Z" transform="translate(-9.66 -3.4)"/><circle class="cls-2" cx="15.07" cy="14.82" r="11.44"/><line class="cls-3" x1="7.43" y1="9.88" x2="7.43" y2="19.76"/><polyline class="cls-3" points="22.5 19.76 22.5 16.68 7.43 16.68"/><rect class="cls-4" x="9" y="13.8" width="13.7" height="1.26"/><path class="cls-4" d="M21.69,15v2.55H32.36v-.31a1.36,1.36,0,0,0-1.29-1.29C29.78,15.74,21.69,15,21.69,15Z" transform="translate(-9.66 -3.4)"/><circle class="cls-4" cx="10.1" cy="12.02" r="1.1"/></svg>