<svg id="Layer_1" data-name="Layer 1" xmlns="http://www.w3.org/2000/svg" viewBox="0 0 60 60"><defs><style>.cls-1{fill:#012958;}</style></defs><title>electricity220-blue</title><path class="cls-1" d="M19,33a8,8,0,1,0,8,8,8,8,0,0,0-8-8m0,18A10,10,0,1,1,29,41,10,10,0,0,1,19,51"/><path class="cls-1" d="M18,41a2,2,0,1,0-2,2,2,2,0,0,0,2-2"/><path class="cls-1" d="M24,41a2,2,0,1,0-2,2,2,2,0,0,0,2-2"/><path class="cls-1" d="M19,35a1,1,0,0,1-1-1V32a1,1,0,1,1,2,0v2a1,1,0,0,1-1,1"/><path class="cls-1" d="M19,51a1,1,0,0,1-1-1V48a1,1,0,0,1,2,0v2a1,1,0,0,1-1,1"/><path class="cls-1" d="M32,13h2V3a1,1,0,0,0-2,0Zm3,2H31a1,1,0,0,1-1-1V3a3,3,0,0,1,6,0V14a1,1,0,0,1-1,1Z"/><path class="cls-1" d="M28,15v6.57a18.19,18.19,0,0,0,4.74,12.26A20.18,20.18,0,0,1,38,47.43V50a3,3,0,0,0,3,3h4a3,3,0,0,0,3-3V47.43a20.19,20.19,0,0,1,5.26-13.6A18.2,18.2,0,0,0,58,21.57V15ZM45,55H41a5,5,0,0,1-5-5V47.43a18.19,18.19,0,0,0-4.74-12.26A20.18,20.18,0,0,1,26,21.57V14a1,1,0,0,1,1-1H59a1,1,0,0,1,1,1v7.57a20.18,20.18,0,0,1-5.26,13.6A18.2,18.2,0,0,0,50,47.43V50a5,5,0,0,1-5,5Z"/><path class="cls-1" d="M43,60a1,1,0,0,1-1-1V54a1,1,0,0,1,2,0v5a1,1,0,0,1-1,1"/><path class="cls-1" d="M52,13h2V3a1,1,0,0,0-2,0Zm3,2H51a1,1,0,0,1-1-1V3a3,3,0,0,1,6,0V14a1,1,0,0,1-1,1Z"/><path class="cls-1" d="M50,24H36a1,1,0,0,1,0-2H50a1,1,0,0,1,0,2"/><path class="cls-1" d="M50,28H36a1,1,0,0,1,0-2H50a1,1,0,1,1,0,2"/><path class="cls-1" d="M28,15v6.57a18.19,18.19,0,0,0,4.74,12.26A20.18,20.18,0,0,1,38,47.43V50a3,3,0,0,0,3,3h4a3,3,0,0,0,3-3V47.43a20.19,20.19,0,0,1,5.26-13.6A18.2,18.2,0,0,0,58,21.57V15ZM45,55H41a5,5,0,0,1-5-5V47.43a18.19,18.19,0,0,0-4.74-12.26A20.18,20.18,0,0,1,26,21.57V14a1,1,0,0,1,1-1H59a1,1,0,0,1,1,1v7.57a20.18,20.18,0,0,1-5.26,13.6A18.2,18.2,0,0,0,50,47.43V50a5,5,0,0,1-5,5Z"/><path class="cls-1" d="M6,24a4,4,0,0,0-4,4V54a4,4,0,0,0,4,4H32a4,4,0,0,0,4-4V47.43a18.19,18.19,0,0,0-4.74-12.26A20.31,20.31,0,0,1,26.16,24ZM32,60H6a6,6,0,0,1-6-6V28a6,6,0,0,1,6-6H27.07a1,1,0,0,1,1,.93,18.3,18.3,0,0,0,4.68,10.9A20.19,20.19,0,0,1,38,47.43V54a6,6,0,0,1-6,6Z"/><path class="cls-1" d="M7.5,28A1.5,1.5,0,0,0,6,29.5v23A1.5,1.5,0,0,0,7.5,54h23A1.5,1.5,0,0,0,32,52.5V36.05c-.24-.3-.48-.6-.74-.88A20.35,20.35,0,0,1,27.06,28Zm23,28H7.5A3.5,3.5,0,0,1,4,52.5v-23A3.5,3.5,0,0,1,7.5,26H27.79a1,1,0,0,1,1,.72,18.3,18.3,0,0,0,4,7.11c.33.36.66.76,1.05,1.27a1,1,0,0,1,.21.61V52.5A3.5,3.5,0,0,1,30.5,56Z"/></svg>