<svg id="Layer_1" data-name="Layer 1" xmlns="http://www.w3.org/2000/svg" width="42.59" height="43.39" viewBox="0 0 42.59 43.39"><defs><style>.cls-1{fill:#012958;}.cls-2{fill:none;stroke-width:1.81px;}.cls-2,.cls-4{stroke:#ffd25b;stroke-linecap:round;stroke-linejoin:round;}.cls-3,.cls-4{fill:#ffd25b;}.cls-4{stroke-width:0.25px;}</style></defs><title>essential-info</title><path class="cls-1" d="M10.88,37.22a3.95,3.95,0,1,0,3.95,3.95A4,4,0,0,0,10.88,37.22Z" transform="translate(-2.81 -2.35)"/><path class="cls-1" d="M18.52,38.71a3.95,3.95,0,1,0-3.95-3.95A4,4,0,0,0,18.52,38.71Z" transform="translate(-2.81 -2.35)"/><path class="cls-1" d="M37.85,30.54A7.42,7.42,0,1,0,45.27,38a7.42,7.42,0,0,0-7.42-7.42Z" transform="translate(-2.81 -2.35)"/><line class="cls-2" x1="20.8" y1="11.9" x2="22.37" y2="11.9"/><line class="cls-2" x1="20.8" y1="11.9" x2="22.89" y2="11.9"/><line class="cls-2" x1="0.9" y1="11.9" x2="2.48" y2="11.9"/><line class="cls-2" x1="0.9" y1="11.9" x2="3" y2="11.9"/><line class="cls-2" x1="11.9" y1="20.8" x2="11.9" y2="22.37"/><line class="cls-2" x1="11.9" y1="20.8" x2="11.9" y2="22.89"/><line class="cls-2" x1="11.9" y1="0.9" x2="11.9" y2="2.48"/><line class="cls-2" x1="11.9" y1="0.9" x2="11.9" y2="3"/><line class="cls-2" x1="18.07" y1="18.07" x2="19.43" y2="19.43"/><line class="cls-2" x1="18.07" y1="18.07" x2="19.75" y2="19.75"/><line class="cls-2" x1="4.05" y1="4.05" x2="5.41" y2="5.41"/><line class="cls-2" x1="4.05" y1="4.05" x2="5.72" y2="5.72"/><line class="cls-2" x1="5.72" y1="18.07" x2="4.36" y2="19.43"/><line class="cls-2" x1="5.72" y1="18.07" x2="4.05" y2="19.75"/><line class="cls-2" x1="19.75" y1="4.05" x2="18.39" y2="5.41"/><line class="cls-2" x1="19.75" y1="4.05" x2="18.07" y2="5.72"/><circle class="cls-1" cx="11.9" cy="11.9" r="6.65"/><path class="cls-3" d="M37.85,33.11a.57.57,0,0,1,.57.57v3.71h3.14a.57.57,0,1,1,0,1.14H37.85a.57.57,0,0,1-.57-.57V33.68A.57.57,0,0,1,37.85,33.11Z" transform="translate(-2.81 -2.35)"/><path class="cls-1" d="M45.27,11a.85.85,0,0,0-.87-.87H41.94V6.63a.84.84,0,0,0-.84-.84h0a.84.84,0,0,0-.84.84v3.51h-5V6.63a.84.84,0,0,0-.84-.84h0a.84.84,0,0,0-.84.84v3.51H31.09a.85.85,0,0,0-.87.87h0a.85.85,0,0,0,.87.87h.8v4.33a6,6,0,0,0,5,6V24.9a.84.84,0,0,0,.84.84h0a.84.84,0,0,0,.84-.84V22.19a6,6,0,0,0,5-6V11.84h.8a.85.85,0,0,0,.87-.87Z" transform="translate(-2.81 -2.35)"/><path class="cls-3" d="M22.44,42.46,21.34,40a.39.39,0,0,0-.16-.16h0a0,0,0,0,1,0,0H21s-.06,0-.06,0,0,0-.06,0a0,0,0,0,0,0,0l-2.07,1.72a.32.32,0,0,0,.42.49l1.49-1.23a5,5,0,0,1-4.89,4.21.32.32,0,0,0,0,.65,5.62,5.62,0,0,0,5.47-4.4l.62,1.39a.31.31,0,0,0,.29.19.19.19,0,0,0,.13,0A.32.32,0,0,0,22.44,42.46Z" transform="translate(-2.81 -2.35)"/><path class="cls-3" d="M8.29,36.44l0,0s0,0,0,.06a.11.11,0,0,0,.06,0s0,0,.06,0h.1a.12.12,0,0,0,.1,0,296479.43,296479.43,0,0,1,.06-.06l2.4-1.88a.32.32,0,0,0-.39-.52L8.94,35.54a5.54,5.54,0,0,1,5.44-4.69.32.32,0,1,0,0-.65,6.11,6.11,0,0,0-6,5l-.84-1.72a.29.29,0,0,0-.42-.13.32.32,0,0,0-.16.42Z" transform="translate(-2.81 -2.35)"/><path class="cls-3" d="M13.4,40.39h-.34l.33-1.11a.21.21,0,0,0-.13-.24.19.19,0,0,0-.24.12l-.37,1.22H11.44l-.37-1.22a.2.2,0,0,0-.38,0l-.37,1.22H9.12l-.37-1.22A.2.2,0,0,0,8.53,39a.19.19,0,0,0-.16.25l.33,1.11H8.37a.19.19,0,1,0,0,.39h.45l.24.77h-.3a.19.19,0,0,0,0,.39h.42l.36,1.22a.19.19,0,0,0,.38,0l.36-1.22H11.5l.36,1.22a.19.19,0,0,0,.38,0l.36-1.22H13a.19.19,0,1,0,0-.39h-.3l.24-.77h.45a.19.19,0,1,0,0-.39Zm-3.68,2-.15-.48h.29Zm.26-.87H9.46l-.23-.77h1Zm.9-1.64.15.48h-.29Zm-.5,1.64.24-.77h.52l.24.77Zm1.66.87-.15-.48h.29Zm.26-.87h-.52l-.23-.77h1Z" transform="translate(-2.81 -2.35)"/><path class="cls-4" d="M18.44,37a2.74,2.74,0,0,1-1.65-.75L17,36a2.31,2.31,0,0,0,1.43.7v-2c-1-.23-1.48-.61-1.48-1.31a1.36,1.36,0,0,1,1.46-1.26v-.4h.33v.42a2.36,2.36,0,0,1,1.34.57l-.23.27a2,2,0,0,0-1.13-.53v2c1.06.22,1.5.62,1.5,1.3a1.37,1.37,0,0,1-1.49,1.29v.68h-.33Zm0-2.65V32.5c-.68,0-1.12.42-1.12.92S17.54,34.17,18.45,34.4Zm.31.42v1.92c.7,0,1.15-.42,1.15-.95S19.68,35,18.76,34.82Z" transform="translate(-2.81 -2.35)"/><rect class="cls-4" x="27.41" y="7.72" width="15.05" height="1.91" rx="0.91" ry="0.91"/></svg>