<svg id="Layer_1" data-name="Layer 1" xmlns="http://www.w3.org/2000/svg" width="47.64" height="44.53" viewBox="0 0 47.64 44.53"><defs><style>.cls-1,.cls-3{fill:#012958;}.cls-2{fill:#ffd25b;}.cls-3{stroke:#012958;stroke-miterlimit:10;stroke-width:0.84px;}</style></defs><title>getting-to-around</title><path class="cls-1" d="M21.07,34.47l-1.81-4.62a2.51,2.51,0,0,0-2.49-1.63H14.18V27a.64.64,0,0,0-.68-.72h-3a.66.66,0,0,0-.7.72v1.2H7.18a2.47,2.47,0,0,0-2.47,1.63L2.88,34.47A2.5,2.5,0,0,0,.88,37v5.87H2.65v1.88a1.67,1.67,0,1,0,3.33,0V42.83H18v1.88a1.67,1.67,0,1,0,3.33,0V42.83h1.79V37A2.53,2.53,0,0,0,21.07,34.47ZM12,34.36H4.76L6.14,30.8c.17-.52.43-.89,1-.88h9.61c.59,0,.85.36,1,.88l1.38,3.56Z" transform="translate(-0.46 -1.96)"/><path class="cls-1" d="M19.58,37.69" transform="translate(-0.46 -1.96)"/><path class="cls-1" d="M44.37,37.37" transform="translate(-0.46 -1.96)"/><path class="cls-1" d="M27.85,37.37" transform="translate(-0.46 -1.96)"/><path class="cls-1" d="M36,17.52h0Z" transform="translate(-0.46 -1.96)"/><path class="cls-1" d="M46.95,21.8c-.33-1.6-1.37-2.24-2.92-2.88a27.09,27.09,0,0,0-7.92-1.4,27.15,27.15,0,0,0-7.92,1.4c-1.55.64-2.59,1.28-2.9,2.88l-1.18,8.84V42.83h2v1.9a1.73,1.73,0,1,0,3.47,0v-1.9H42.64v1.9a1.72,1.72,0,1,0,3.44,0v-1.9h2V30.64ZM36,31.57H27.19c-.87,0-1-.6-1-1.22l.91-6.41c.14-.77.4-1.29,1.43-1.29H43.66c1,0,1.3.52,1.43,1.29L46,30.34c.08.62-.1,1.23-1,1.22Z" transform="translate(-0.46 -1.96)"/><path class="cls-2" d="M4.37,39.25a1.56,1.56,0,0,1,0-3.13,1.56,1.56,0,0,1,0,3.13Z" transform="translate(-0.46 -1.96)"/><path class="cls-2" d="M19.58,39.25a1.56,1.56,0,0,1,0-3.13,1.56,1.56,0,0,1,0,3.13Z" transform="translate(-0.46 -1.96)"/><path class="cls-2" d="M31.18,19.76H41a.71.71,0,1,1,0,1.43H31.18A.71.71,0,1,1,31.18,19.76Z" transform="translate(-0.46 -1.96)"/><path class="cls-2" d="M27.85,39a1.63,1.63,0,1,1,1.65-1.63A1.63,1.63,0,0,1,27.85,39Z" transform="translate(-0.46 -1.96)"/><path class="cls-2" d="M44.37,39A1.63,1.63,0,1,1,46,37.37,1.63,1.63,0,0,1,44.37,39Z" transform="translate(-0.46 -1.96)"/><path class="cls-3" d="M9.13,12.51a.43.43,0,0,0-.4-.49l-5.21-.27a.43.43,0,0,0-.41.24L1.82,14.71l-.73.05L1.57,12a.43.43,0,0,0-.32-.49.44.44,0,0,1,0-.87.43.43,0,0,0,.33-.42.44.44,0,0,0,0-.07L1.1,7.5l.73.05,1.27,2.66a.43.43,0,0,0,.41.24l5.22-.28a.43.43,0,0,0,.4-.49L8.05,2.5l.85.19,3.27,7.23a.43.43,0,0,0,.39.25h3.69c1,0,1.79.62,1.79.92s-.79.92-1.79.92H12.59a.43.43,0,0,0-.39.25l-3.3,7.3-.85.19Z" transform="translate(-0.46 -1.96)"/></svg>