<svg id="Layer_1" data-name="Layer 1" xmlns="http://www.w3.org/2000/svg" width="29.67" height="42.18" viewBox="0 0 29.67 42.18"><defs><style>.cls-1{fill:#012958;}.cls-2,.cls-4{fill:none;}.cls-2,.cls-3,.cls-4{stroke:#ffd25b;stroke-miterlimit:10;}.cls-2{stroke-width:0.73px;}.cls-3,.cls-5{fill:#ffd25b;}.cls-3,.cls-4{stroke-width:0.5px;}</style></defs><title>where-to-eat</title><path class="cls-1" d="M39.33,18.24c0,13.9-14.83,27.34-14.83,27.34S9.66,31,9.66,18.24a14.83,14.83,0,0,1,29.67,0Z" transform="translate(-9.66 -3.4)"/><circle class="cls-2" cx="15.07" cy="14.82" r="11.44"/><path class="cls-3" d="M27.84,19.17s.68-.71.68-3.61a4.39,4.39,0,0,0-1.36-3.51v12.4a.42.42,0,1,0,.84,0Z" transform="translate(-9.66 -3.4)"/><path class="cls-4" d="M22.29,17.08,22,24.29a.58.58,0,1,0,1.17,0l-.29-7.2" transform="translate(-9.66 -3.4)"/><path class="cls-4" d="M22.3,17.06a1.7,1.7,0,0,1-1.4-1.67V11.53" transform="translate(-9.66 -3.4)"/><path class="cls-4" d="M20.89,14.84h3.39L24.17,16l-1.29,1.06a1.7,1.7,0,0,0,1.4-1.67V11.53" transform="translate(-9.66 -3.4)"/><line class="cls-4" x1="12.49" y1="8.12" x2="12.49" y2="11.78"/><line class="cls-4" x1="13.51" y1="8.12" x2="13.51" y2="11.78"/><line class="cls-4" x1="13.28" y1="15.06" x2="13.48" y2="20.12"/><path class="cls-5" d="M21.59,15.89a2.24,2.24,0,0,0,1,.56c.63.14.89-.82.27-1a1.22,1.22,0,0,1-.6-.3c-.47-.43-1.18.27-.71.71Z" transform="translate(-9.66 -3.4)"/><path class="cls-5" d="M21.14,15.69c.42,0,.83.09,1.25.11a3.75,3.75,0,0,1,1.17,0l-.1-.79-1,1-.21.2q.32,0,0-.12c-.12-.19-.39-.34-.52-.55-.36-.53-1.23,0-.86.5s1,1.24,1.62,1.13a1.53,1.53,0,0,0,.73-.52l1-.94a.5.5,0,0,0-.1-.79,2.84,2.84,0,0,0-1.29-.16,15,15,0,0,1-1.64-.12c-.64-.07-.63.93,0,1Z" transform="translate(-9.66 -3.4)"/><path class="cls-5" d="M22,17.21c0,1.43,0,2.87,0,4.3,0,.76-.47,2.31,0,3,.76,1.17,1.25-.35,1.29-1s-1-.64-1,0,.08.52.63,0a10.07,10.07,0,0,0,.11-1c0-.5,0-1,0-1.49q0-1.88,0-3.76a.5.5,0,0,0-1,0Z" transform="translate(-9.66 -3.4)"/></svg>